<?xml version="1.0" encoding="UTF-8"?>
<svg version="1.1" xmlns="http://www.w3.org/2000/svg" width="580" height="491">
<path d="M0 0 C1.87939453 -0.34057617 1.87939453 -0.34057617 4.1328125 -0.29296875 C4.93847656 -0.28330078 5.74414062 -0.27363281 6.57421875 -0.26367188 C7.41597656 -0.23853516 8.25773438 -0.21339844 9.125 -0.1875 C9.97449219 -0.17396484 10.82398438 -0.16042969 11.69921875 -0.14648438 C13.79974837 -0.11108219 15.89995293 -0.05727401 18 0 C18 0.66 18 1.32 18 2 C18.66 2 19.32 2 20 2 C20.06058594 2.99902344 20.12117187 3.99804688 20.18359375 5.02734375 C20.26738281 6.31769531 20.35117187 7.60804687 20.4375 8.9375 C20.51871094 10.22527344 20.59992188 11.51304688 20.68359375 12.83984375 C20.64919188 15.86023957 20.64919188 15.86023957 22 17 C22.26791007 19.69398457 22.47053392 22.36161512 22.625 25.0625 C22.6765625 25.80177734 22.728125 26.54105469 22.78125 27.30273438 C23.08156418 32.35066238 22.76050037 36.99999386 22 42 C22.66 42 23.32 42 24 42 C24.02505615 42.61520508 24.0501123 43.23041016 24.07592773 43.86425781 C24.19218487 46.65970156 24.31477642 49.45483298 24.4375 52.25 C24.47681641 53.21808594 24.51613281 54.18617188 24.55664062 55.18359375 C24.61948242 56.58544922 24.61948242 56.58544922 24.68359375 58.015625 C24.72025146 58.87446289 24.75690918 59.73330078 24.79467773 60.61816406 C24.92841962 62.94975329 24.92841962 62.94975329 25.50927734 64.95410156 C26.63544307 69.64926016 26.18478666 74.69738111 26.1875 79.5 C26.19974609 80.64082031 26.21199219 81.78164062 26.22460938 82.95703125 C26.22654297 84.05402344 26.22847656 85.15101563 26.23046875 86.28125 C26.23457764 87.28220703 26.23868652 88.28316406 26.24291992 89.31445312 C25.99359361 92.07082436 25.52101868 93.70236864 24 96 C21.875 96.75 21.875 96.75 20 97 C20 97.66 20 98.32 20 99 C19.01 99 18.02 99 17 99 C17 99.66 17 100.32 17 101 C11.30979306 104.2828117 5.37621985 104.10993482 -1 104 C-1 104.66 -1 105.32 -1 106 C-3.05078125 106.22786458 -5.1015625 106.45572917 -7.15234375 106.68359375 C-9.01140229 106.81886614 -9.01140229 106.81886614 -10 108 C-11.57441461 108.37319457 -13.16020785 108.69897427 -14.75 109 C-15.61109375 109.165 -16.4721875 109.33 -17.359375 109.5 C-18.23078125 109.665 -19.1021875 109.83 -20 110 C-20.85464844 110.18433594 -21.70929688 110.36867188 -22.58984375 110.55859375 C-25.74567015 111.1365652 -28.79984455 111.06274815 -32 111 C-32 111.66 -32 112.32 -32 113 C-32.79664063 113.19335938 -33.59328125 113.38671875 -34.4140625 113.5859375 C-39.6860578 114.88148866 -44.87054673 116.21065584 -50 118 C-54.1428617 119.30827211 -57.64396476 120.26400214 -62 120 C-62 120.66 -62 121.32 -62 122 C-63.07121094 122.27714844 -64.14242187 122.55429688 -65.24609375 122.83984375 C-66.64327627 123.20554924 -68.04040915 123.57144446 -69.4375 123.9375 C-70.14455078 124.11990234 -70.85160156 124.30230469 -71.58007812 124.49023438 C-75.07574861 125.18149374 -75.07574861 125.18149374 -78 127 C-79.66617115 127.04063832 -81.33388095 127.042721 -83 127 C-83 127.66 -83 128.32 -83 129 C-83.85722656 129.24234375 -84.71445313 129.4846875 -85.59765625 129.734375 C-93.05212133 131.82021991 -93.05212133 131.82021991 -99.9375 135.25 C-103.29719061 137.16982321 -105.19757909 137.37096789 -109 137 C-109 137.66 -109 138.32 -109 139 C-109.99 139 -110.98 139 -112 139 C-112 139.66 -112 140.32 -112 141 C-112.85464844 141.27714844 -113.70929688 141.55429688 -114.58984375 141.83984375 C-115.69457031 142.20207031 -116.79929687 142.56429687 -117.9375 142.9375 C-119.03964844 143.29714844 -120.14179688 143.65679687 -121.27734375 144.02734375 C-123.88123475 144.73856668 -123.88123475 144.73856668 -125 146 C-126.66617115 146.04063832 -128.33388095 146.042721 -130 146 C-130 146.66 -130 147.32 -130 148 C-130.63808594 148.06058594 -131.27617187 148.12117187 -131.93359375 148.18359375 C-132.75988281 148.26738281 -133.58617187 148.35117187 -134.4375 148.4375 C-135.26121094 148.51871094 -136.08492187 148.59992188 -136.93359375 148.68359375 C-138.98662025 148.78930815 -138.98662025 148.78930815 -140 150 C-143.97081975 150.3124085 -147.95592964 150.27870059 -151.9375 150.3125 C-153.04158203 150.34150391 -154.14566406 150.37050781 -155.28320312 150.40039062 C-162.70045695 150.45734532 -168.35413699 149.3224621 -175 146 C-175 145.34 -175 144.68 -175 144 C-175.8971875 143.8453125 -175.8971875 143.8453125 -176.8125 143.6875 C-179.33844795 142.89363064 -180.34885407 142.04427591 -182 140 C-183.01167847 136.96496458 -183.16014923 134.81269418 -183.22119141 131.63330078 C-183.24436432 130.5343045 -183.26753723 129.43530823 -183.29141235 128.30300903 C-183.3112619 127.11246918 -183.33111145 125.92192932 -183.3515625 124.6953125 C-183.37471527 123.46521454 -183.39786804 122.23511658 -183.42172241 120.96774292 C-183.48161795 117.68811855 -183.53672946 114.40845182 -183.59051514 111.12872314 C-183.64714486 107.8382859 -183.71552683 104.54807881 -183.78125 101.2578125 C-183.82622385 98.71615818 -183.87051563 96.17449167 -183.9140625 93.6328125 C-183.93796051 92.46251495 -183.96185852 91.29221741 -183.98648071 90.0864563 C-184.336983 66.59610709 -184.336983 66.59610709 -180 61 C-176.47907648 58.25088644 -173.54998964 56 -169 56 C-169 55.34 -169 54.68 -169 54 C-156.41479169 45.60986113 -134.30346473 48.96370858 -119.9375 50.4375 C-118.37706702 50.58777595 -116.81651966 50.73686897 -115.25585938 50.88476562 C-111.50245597 51.24297763 -107.75093574 51.61684508 -104 52 C-104 52.66 -104 53.32 -104 54 C-103.21753906 53.98839844 -102.43507813 53.97679687 -101.62890625 53.96484375 C-100.11103516 53.95130859 -100.11103516 53.95130859 -98.5625 53.9375 C-97.55316406 53.92589844 -96.54382813 53.91429687 -95.50390625 53.90234375 C-93 54 -93 54 -92 55 C-90.33111331 55.21558169 -88.65436757 55.37104878 -86.9765625 55.5 C-85.955625 55.5825 -84.9346875 55.665 -83.8828125 55.75 C-82.80773437 55.8325 -81.73265625 55.915 -80.625 56 C-78.51275517 56.1632653 -76.40075887 56.3297877 -74.2890625 56.5 C-73.34756348 56.5721875 -72.40606445 56.644375 -71.43603516 56.71875 C-69 57 -69 57 -66 58 C-63.13569136 58.30239035 -60.27080066 58.50765769 -57.3984375 58.71875 C-55 59 -55 59 -54 60 C-52.00396794 60.20888708 -50.00257059 60.36775477 -48 60.5 C-42.11111111 60.88888889 -42.11111111 60.88888889 -41 62 C-30.23287835 63.21806823 -19.31890381 63.10311818 -8.5 63.125 C-7.19321289 63.12959229 -5.88642578 63.13418457 -4.54003906 63.13891602 C-3.32026367 63.13690186 -2.10048828 63.1348877 -0.84375 63.1328125 C0.25775391 63.13168457 1.35925781 63.13055664 2.49414062 63.12939453 C4.93967684 63.2835571 4.93967684 63.2835571 6 62 C6.16666667 58.5 6.16666667 58.5 6 55 C5.67 54.67 5.34 54.34 5 54 C4.83948952 52.00253626 4.72229703 50.00153898 4.625 48 C4.3483988 43.89559509 3.97669806 40.34228233 2.5 36.5 C0.35273363 30.82954901 0.33984557 24.99901314 0 19 C-0.03874996 13.57836006 -0.03874996 13.57836006 -2 9 C-2.26293056 4.96839809 -2.29404844 3.44107266 0 0 Z " fill="#010101" transform="translate(263,111)"/>
<path d="M0 0 C0.69461334 0.00687332 1.38922668 0.01374664 2.10488892 0.02082825 C7.69184206 0.28604849 10.59533207 2.30888531 14.7265625 5.83203125 C14.7265625 6.49203125 14.7265625 7.15203125 14.7265625 7.83203125 C15.3865625 7.83203125 16.0465625 7.83203125 16.7265625 7.83203125 C17.52463448 9.51651143 18.31468551 11.20479252 19.1015625 12.89453125 C19.76285156 14.30412109 19.76285156 14.30412109 20.4375 15.7421875 C23.1746176 22.30297545 24.01895094 27.99886892 23.95703125 35.01171875 C23.95657303 35.8650882 23.95611481 36.71845764 23.9556427 37.59768677 C23.95263862 39.38772994 23.94480811 41.17777093 23.93237305 42.96777344 C23.91397919 45.71949405 23.91186456 48.47088023 23.91210938 51.22265625 C23.90719867 52.96484668 23.90137231 54.70703483 23.89453125 56.44921875 C23.89341843 57.27517548 23.8923056 58.1011322 23.89115906 58.95211792 C23.84265572 64.71593803 23.84265572 64.71593803 22.7265625 65.83203125 C22.51687499 68.16189248 22.35840861 70.49647161 22.2265625 72.83203125 C21.83767361 79.72092014 21.83767361 79.72092014 20.7265625 80.83203125 C20.51176118 82.35465933 20.35586218 83.88570981 20.2265625 85.41796875 C20.1440625 86.34867187 20.0615625 87.279375 19.9765625 88.23828125 C19.8940625 89.21796875 19.8115625 90.19765625 19.7265625 91.20703125 C19.56318753 93.13179265 19.3966557 95.05628941 19.2265625 96.98046875 C19.154375 97.83817871 19.0821875 98.69588867 19.0078125 99.57958984 C18.7265625 101.83203125 18.7265625 101.83203125 17.7265625 104.83203125 C17.52768325 106.64128001 17.36446649 108.45461623 17.2265625 110.26953125 C17.02174547 112.95775483 16.82896523 115.4486947 16.1328125 118.0546875 C15.50762869 119.92355575 15.50762869 119.92355575 16.7265625 121.83203125 C16.11895768 124.18143655 15.45526722 126.51732213 14.7265625 128.83203125 C14.0665625 128.83203125 13.4065625 128.83203125 12.7265625 128.83203125 C12.73816406 129.54746094 12.74976563 130.26289063 12.76171875 131 C12.93079908 149.67129977 12.93079908 149.67129977 11.2265625 155.55957031 C10.53269611 158.71313884 10.50272109 161.77736035 10.41015625 165.00390625 C10.3789846 166.02753265 10.3789846 166.02753265 10.34718323 167.07183838 C10.28204198 169.24180481 10.22296846 171.41188749 10.1640625 173.58203125 C10.12084353 175.05730346 10.07722818 176.53256412 10.03320312 178.0078125 C9.92639732 181.61576291 9.82503097 185.22384258 9.7265625 188.83203125 C11.0053125 189.01765625 12.2840625 189.20328125 13.6015625 189.39453125 C14.32085937 189.49894531 15.04015625 189.60335937 15.78125 189.7109375 C17.80796917 190.00046095 17.80796917 190.00046095 19.7265625 188.83203125 C21.22303549 188.55673499 22.72736192 188.32335513 24.234375 188.11328125 C25.59175781 187.92185547 25.59175781 187.92185547 26.9765625 187.7265625 C28.3996875 187.53126953 28.3996875 187.53126953 29.8515625 187.33203125 C30.77710938 187.20183594 31.70265625 187.07164062 32.65625 186.9375 C36.79849546 186.35828771 40.94110025 185.80011349 45.09375 185.30078125 C47.19516076 185.02963147 49.29376276 184.71808851 51.37109375 184.30078125 C54.98595496 183.58140588 58.62992764 183.39145148 62.30078125 183.11328125 C64.73272409 182.97112799 64.73272409 182.97112799 66.7265625 181.83203125 C69.7890625 181.70703125 69.7890625 181.70703125 72.7265625 181.83203125 C75.02666023 184.13212898 73.91193615 189.67993791 73.9140625 192.76953125 C73.92630859 193.70216797 73.93855469 194.63480469 73.95117188 195.59570312 C73.95310547 196.48708984 73.95503906 197.37847656 73.95703125 198.296875 C73.96114014 199.11792725 73.96524902 199.93897949 73.96948242 200.78491211 C73.7265625 202.83203125 73.7265625 202.83203125 71.7265625 204.83203125 C69.26252791 205.11488492 66.88562564 205.29793059 64.4140625 205.39453125 C59.48200924 205.56231296 59.48200924 205.56231296 54.62524414 206.31616211 C50.31934948 207.08246847 46.01359802 207.16626685 41.6484375 207.33203125 C39.66406155 207.41534206 37.67968658 207.49867608 35.6953125 207.58203125 C32.57231757 207.70837239 29.44926391 207.83311439 26.32617188 207.95703125 C23.30841811 208.0781198 20.29093935 208.20484306 17.2734375 208.33203125 C16.33183777 208.36748047 15.39023804 208.40292969 14.42010498 208.43945312 C13.12305634 208.49456055 13.12305634 208.49456055 11.79980469 208.55078125 C11.03545105 208.58107422 10.27109741 208.61136719 9.48358154 208.64257812 C7.70048554 208.64903278 7.70048554 208.64903278 6.7265625 209.83203125 C4.43852083 210.04269493 2.14552428 210.20067966 -0.1484375 210.33203125 C-5.30074942 210.6103544 -5.30074942 210.6103544 -10.2734375 211.83203125 C-13.01156357 211.37654948 -15.5935551 210.57888372 -18.2734375 209.83203125 C-18.2734375 209.17203125 -18.2734375 208.51203125 -18.2734375 207.83203125 C-19.2634375 207.83203125 -20.2534375 207.83203125 -21.2734375 207.83203125 C-21.2734375 207.17203125 -21.2734375 206.51203125 -21.2734375 205.83203125 C-21.9334375 205.83203125 -22.5934375 205.83203125 -23.2734375 205.83203125 C-26.40402113 200.0907026 -28.51664847 195.39086955 -29.2734375 188.83203125 C-29.7478125 187.96578125 -30.2221875 187.09953125 -30.7109375 186.20703125 C-33.12801094 180.98615263 -33.51602099 175.49981753 -34.2734375 169.83203125 C-34.57391894 167.7261147 -34.88587287 165.62179351 -35.2109375 163.51953125 C-35.41009766 162.16408203 -35.41009766 162.16408203 -35.61328125 160.78125 C-36.15550566 158.35888653 -36.81642317 156.32427496 -37.71875 154.03125 C-39.38518746 149.74995899 -40.31427565 145.45238594 -41.2109375 140.95703125 C-42.465354 134.96895602 -43.9202284 129.38219332 -46.44140625 123.77734375 C-47.28815979 121.79761013 -47.78066532 119.92631301 -48.2734375 117.83203125 C-50.79756299 109.0864697 -53.71532245 100.62804017 -57.390625 92.30078125 C-58.2734375 89.83203125 -58.2734375 89.83203125 -58.2734375 85.83203125 C-58.9334375 85.83203125 -59.5934375 85.83203125 -60.2734375 85.83203125 C-63.70200893 78.54631696 -63.70200893 78.54631696 -63.2734375 73.83203125 C-63.9334375 73.83203125 -64.5934375 73.83203125 -65.2734375 73.83203125 C-65.2734375 72.51203125 -65.2734375 71.19203125 -65.2734375 69.83203125 C-65.9334375 69.83203125 -66.5934375 69.83203125 -67.2734375 69.83203125 C-67.7684375 67.35703125 -67.7684375 67.35703125 -68.2734375 64.83203125 C-68.9334375 64.83203125 -69.5934375 64.83203125 -70.2734375 64.83203125 C-70.2734375 63.18203125 -70.2734375 61.53203125 -70.2734375 59.83203125 C-70.9334375 59.83203125 -71.5934375 59.83203125 -72.2734375 59.83203125 C-75.21006434 51.19694996 -75.60213527 42.81775915 -75.6484375 33.76953125 C-75.66197266 32.68236816 -75.67550781 31.59520508 -75.68945312 30.47509766 C-75.64291199 21.8947225 -75.3737401 11.4894883 -69.2734375 4.83203125 C-68.6134375 4.83203125 -67.9534375 4.83203125 -67.2734375 4.83203125 C-67.2734375 4.17203125 -67.2734375 3.51203125 -67.2734375 2.83203125 C-64.15397871 1.01987349 -61.83099596 0.56412103 -58.23974609 0.49731445 C-56.73569717 0.46266838 -56.73569717 0.46266838 -55.20126343 0.42732239 C-54.11906525 0.41263412 -53.03686707 0.39794586 -51.921875 0.3828125 C-50.79383453 0.36107468 -49.66579407 0.33933685 -48.50357056 0.31694031 C-46.10792949 0.27299391 -43.71219725 0.23380089 -41.31640625 0.19897461 C-37.71060663 0.14545402 -34.10545107 0.07498307 -30.5 0.00195312 C-20.33770094 -0.18597703 -10.16059565 -0.32965225 0 0 Z " fill="#020101" transform="translate(345.2734375,21.16796875)"/>
<path d="M0 0 C1.1653125 -0.00128906 2.330625 -0.00257813 3.53125 -0.00390625 C4.7584375 -0.00003906 5.985625 0.00382813 7.25 0.0078125 C8.4771875 0.00394531 9.704375 0.00007812 10.96875 -0.00390625 C12.71671875 -0.00197266 12.71671875 -0.00197266 14.5 0 C15.57765625 0.00112793 16.6553125 0.00225586 17.765625 0.00341797 C20.25 0.1328125 20.25 0.1328125 21.25 1.1328125 C23.46380133 1.66717834 25.69136053 2.09565862 27.92578125 2.53515625 C30.2522355 3.13338734 32.14842599 3.98343907 34.25 5.1328125 C34.25 5.7928125 34.25 6.4528125 34.25 7.1328125 C34.91 7.1328125 35.57 7.1328125 36.25 7.1328125 C36.25 7.7928125 36.25 8.4528125 36.25 9.1328125 C36.91 9.1328125 37.57 9.1328125 38.25 9.1328125 C39.39668971 12.57288164 39.39810839 15.26638015 39.42700195 18.89575195 C39.43357315 19.57905579 39.44014435 20.26235962 39.44691467 20.96636963 C39.46661494 23.22627884 39.47830282 25.4861217 39.48828125 27.74609375 C39.49235678 28.51916555 39.4964323 29.29223736 39.50063133 30.08873558 C39.52147801 34.18049221 39.53578583 38.27221545 39.54516602 42.36401367 C39.55622837 46.58415021 39.59062976 50.80375918 39.63033772 55.0237093 C39.65651632 58.27429669 39.66485891 61.52475859 39.66844749 64.77544212 C39.67331017 66.33073681 39.68491519 67.88602601 39.70348549 69.44121742 C39.72790529 71.62179706 39.72690771 73.80101417 39.7199707 75.98168945 C39.72583694 77.22062454 39.73170319 78.45955963 39.73774719 79.73603821 C39.01481268 84.77070661 36.21999453 88.95305385 32.25 92.1328125 C30.15925206 93.24162605 28.0287782 94.27703021 25.875 95.2578125 C24.75351562 95.77601563 23.63203125 96.29421875 22.4765625 96.828125 C14.51829074 100.04611867 6.0692121 99.37261236 -2.375 99.3828125 C-3.17202332 99.38481659 -3.96904663 99.38682068 -4.79022217 99.3888855 C-42.19189563 99.41186468 -42.19189563 99.41186468 -50.75 95.1328125 C-53.60207778 94.82025603 -56.45496854 94.62243768 -59.31640625 94.4140625 C-61.75 94.1328125 -61.75 94.1328125 -62.75 93.1328125 C-65.7925986 92.77432811 -68.82446209 92.46796923 -71.875 92.1953125 C-78.3881749 91.578601 -84.88838919 90.9255205 -91.375 90.0703125 C-92.56351562 89.91433594 -93.75203125 89.75835937 -94.9765625 89.59765625 C-97.75 89.1328125 -97.75 89.1328125 -99.75 88.1328125 C-102.25372052 87.92608328 -104.74224513 87.75937209 -107.25 87.6328125 C-114.47972973 87.26794764 -114.47972973 87.26794764 -116.75 86.1328125 C-119.15560273 85.97673227 -121.53702772 85.87476792 -123.9453125 85.81640625 C-124.65275604 85.79562515 -125.36019958 85.77484406 -126.08908081 85.75343323 C-128.35095425 85.68800172 -130.61294462 85.62908276 -132.875 85.5703125 C-134.40756422 85.52712117 -135.94011657 85.48350668 -137.47265625 85.43945312 C-141.23165073 85.33232695 -144.99076292 85.2310416 -148.75 85.1328125 C-148.60982174 88.11234609 -148.46313658 91.09130554 -148.3125 94.0703125 C-148.27318359 94.92044922 -148.23386719 95.77058594 -148.19335938 96.64648438 C-148.15146484 97.45537109 -148.10957031 98.26425781 -148.06640625 99.09765625 C-148.02974854 99.846521 -147.99309082 100.59538574 -147.95532227 101.36694336 C-147.93228937 103.15742576 -147.93228937 103.15742576 -146.75 104.1328125 C-146.53489012 105.75211189 -146.37916566 107.37940254 -146.25 109.0078125 C-146.1675 109.99265625 -146.085 110.9775 -146 111.9921875 C-145.83333333 114.0859375 -145.66666667 116.1796875 -145.5 118.2734375 C-145.4175 119.25828125 -145.335 120.243125 -145.25 121.2578125 C-145.1778125 122.16789062 -145.105625 123.07796875 -145.03125 124.015625 C-144.97066653 126.11475732 -144.97066653 126.11475732 -143.75 127.1328125 C-143.42648699 129.97253785 -143.2369571 132.81354987 -143.03125 135.6640625 C-143.01614735 138.074173 -143.01614735 138.074173 -141.75 139.1328125 C-141.546875 141.12890625 -141.546875 141.12890625 -141.5 143.5703125 C-141.47421875 144.37339844 -141.4484375 145.17648437 -141.421875 146.00390625 C-141.53015625 146.70644531 -141.6384375 147.40898437 -141.75 148.1328125 C-144.99353256 150.29516754 -145.36944481 150.35160678 -148.98046875 149.890625 C-149.78291016 149.79394531 -150.58535156 149.69726562 -151.41210938 149.59765625 C-152.24548828 149.48550781 -153.07886719 149.37335938 -153.9375 149.2578125 C-154.78248047 149.15339844 -155.62746094 149.04898438 -156.49804688 148.94140625 C-158.58334275 148.68221693 -160.66686936 148.40886447 -162.75 148.1328125 C-164.98916527 138.33185359 -165.35858927 128.50967126 -165.8125 118.5078125 C-165.92811201 116.02395693 -166.04585559 113.54027252 -166.16929626 111.05679321 C-166.24533523 109.52233433 -166.31674788 107.98763776 -166.3830719 106.45272827 C-166.2580483 102.99891327 -166.2580483 102.99891327 -167.75 100.1328125 C-167.96187212 97.33727758 -168.12648719 94.55743619 -168.25 91.7578125 C-168.44815991 85.86092937 -168.44815991 85.86092937 -169.75 80.1328125 C-170.00288202 76.86641974 -169.98127135 73.59548483 -170 70.3203125 C-170.0309375 68.98516602 -170.0309375 68.98516602 -170.0625 67.62304688 C-170.09364029 62.37201483 -169.76602331 58.63258062 -166.75 54.1328125 C-165.06640625 52.5234375 -165.06640625 52.5234375 -163.3125 51.3828125 C-162.73628906 50.99609375 -162.16007812 50.609375 -161.56640625 50.2109375 C-157.22774211 47.6357304 -153.3690273 46.49465622 -148.375 45.5078125 C-147.08851563 45.24742187 -145.80203125 44.98703125 -144.4765625 44.71875 C-141.14936541 44.1956058 -138.10797518 44.01845421 -134.75 44.1328125 C-134.75 43.4728125 -134.75 42.8128125 -134.75 42.1328125 C-133.450625 42.0090625 -132.15125 41.8853125 -130.8125 41.7578125 C-124.74855288 41.08192514 -118.95040948 39.8156982 -113.125 38.0078125 C-109.53755548 37.07773429 -106.43991145 36.98220387 -102.75 37.1328125 C-102.75 36.4728125 -102.75 35.8128125 -102.75 35.1328125 C-101.94175781 34.93945312 -101.13351562 34.74609375 -100.30078125 34.546875 C-98.69783203 34.15628906 -98.69783203 34.15628906 -97.0625 33.7578125 C-96.00675781 33.50257813 -94.95101562 33.24734375 -93.86328125 32.984375 C-91.03996523 32.21212545 -88.44294209 31.26861121 -85.75 30.1328125 C-82.0620723 28.77806355 -79.72929097 28.1328125 -75.75 28.1328125 C-75.75 27.4728125 -75.75 26.8128125 -75.75 26.1328125 C-70.42067568 24.43196431 -65.31890517 23.61267281 -59.75 23.1328125 C-59.75 22.4728125 -59.75 21.8128125 -59.75 21.1328125 C-57.50267898 20.29156934 -55.25261215 19.45966418 -53 18.6328125 C-52.36578125 18.39433594 -51.7315625 18.15585938 -51.078125 17.91015625 C-47.71713393 16.68479492 -45.38128413 16.1328125 -41.75 16.1328125 C-41.75 15.4728125 -41.75 14.8128125 -41.75 14.1328125 C-39.81532058 13.29295166 -37.87714871 12.46113223 -35.9375 11.6328125 C-34.85855469 11.16875 -33.77960938 10.7046875 -32.66796875 10.2265625 C-29.75 9.1328125 -29.75 9.1328125 -26.75 9.1328125 C-26.75 8.4728125 -26.75 7.8128125 -26.75 7.1328125 C-25.68458984 6.71708984 -25.68458984 6.71708984 -24.59765625 6.29296875 C-23.21900391 5.74962891 -23.21900391 5.74962891 -21.8125 5.1953125 C-20.89597656 4.83566406 -19.97945312 4.47601563 -19.03515625 4.10546875 C-16.82581467 3.3331907 -16.82581467 3.3331907 -15.75 2.1328125 C-13.43182911 1.81183499 -11.11220643 1.62060294 -8.78125 1.4140625 C-5.55322178 0.96710475 -3.68496034 0.00385687 0 0 Z " fill="#010101" transform="translate(468.75,211.8671875)"/>
<path d="M0 0 C1.23459961 -0.00451172 2.46919922 -0.00902344 3.74121094 -0.01367188 C5.47806152 -0.01077148 5.47806152 -0.01077148 7.25 -0.0078125 C8.80460937 -0.00612061 8.80460937 -0.00612061 10.390625 -0.00439453 C13 0.125 13 0.125 16 1.125 C16 1.785 16 2.445 16 3.125 C16.66 3.125 17.32 3.125 18 3.125 C19.77166239 6.49959503 21.31722174 9.86204713 22.625 13.4375 C23.6185453 16.88204342 23.6185453 16.88204342 25 18.125 C25.65835711 21.45440598 26.24441028 24.78815645 26.80664062 28.13476562 C27.45544663 31.80909188 28.245988 34.84448383 30 38.125 C30.34375 40.1328125 30.34375 40.1328125 30.5 42.25 C31.09605128 48.60788028 32.28988356 54.7579452 34.125 60.875 C34.99713305 64.11435133 35.16273478 66.78893696 35 70.125 C35.66 70.125 36.32 70.125 37 70.125 C39.51216711 77.48206082 41.33299644 84.38424817 42 92.125 C42.66 92.125 43.32 92.125 44 92.125 C44.17015625 92.81464844 44.3403125 93.50429688 44.515625 94.21484375 C45.7518123 99.00835726 47.06399269 103.51871945 49.1875 108 C50.69248052 111.18735418 51.46336115 113.53395109 51 117.125 C51.66 117.125 52.32 117.125 53 117.125 C53.50833591 118.37163331 54.00631145 119.62249387 54.5 120.875 C54.91765625 121.91914063 54.91765625 121.91914063 55.34375 122.984375 C56 125.125 56 125.125 56 129.125 C56.66 129.125 57.32 129.125 58 129.125 C58 130.775 58 132.425 58 134.125 C58.66 134.125 59.32 134.125 60 134.125 C63 140.625 63 140.625 63 145.125 C63.66 145.125 64.32 145.125 65 145.125 C67.25684543 150.48500789 68.36263859 154.3227825 68 160.125 C68.66 160.125 69.32 160.125 70 160.125 C70 170.355 70 180.585 70 191.125 C69.34 191.125 68.68 191.125 68 191.125 C68.08701172 192.01251953 68.08701172 192.01251953 68.17578125 192.91796875 C68.43683024 197.49005534 68.52926191 199.44253069 65.625 203.1875 C63 205.125 63 205.125 61 205.125 C61 205.785 61 206.445 61 207.125 C60.11739502 207.15005615 59.23479004 207.1751123 58.32543945 207.20092773 C55.03593385 207.2963353 51.74658818 207.39555193 48.45727539 207.49731445 C47.03642225 207.54049804 45.61552274 207.58218408 44.19458008 207.62231445 C42.1465053 207.68042095 40.09866035 207.74399638 38.05078125 207.80859375 C36.82012939 207.84525146 35.58947754 207.88190918 34.3215332 207.91967773 C31.0551508 208.04521501 31.0551508 208.04521501 28.12182617 208.70727539 C27.07152222 208.91404907 27.07152222 208.91404907 26 209.125 C25.67 208.795 25.34 208.465 25 208.125 C22.80198875 208.04921304 20.60156532 208.04196652 18.40234375 208.0625 C17.40081017 208.06817993 17.40081017 208.06817993 16.37904358 208.07397461 C13.51702364 208.09031079 10.65514543 208.11813649 7.79321289 208.14550781 C-13.93867269 208.33576508 -13.93867269 208.33576508 -21.015625 202.41796875 C-26.04323283 196.60850853 -27.17408232 188.55825909 -28 181.125 C-28.33 180.795 -28.66 180.465 -29 180.125 C-29.09946453 178.35640807 -29.13080217 176.58388549 -29.1328125 174.8125 C-29.13474609 173.19988281 -29.13474609 173.19988281 -29.13671875 171.5546875 C-29.13091797 169.85699219 -29.13091797 169.85699219 -29.125 168.125 C-29.13080078 166.42730469 -29.13080078 166.42730469 -29.13671875 164.6953125 C-29.13542969 163.62023437 -29.13414062 162.54515625 -29.1328125 161.4375 C-29.13168457 160.44363281 -29.13055664 159.44976562 -29.12939453 158.42578125 C-29 156.125 -29 156.125 -28 155.125 C-27.83484323 152.37238711 -27.71867526 149.63025081 -27.625 146.875 C-27.30533088 139.34969819 -26.57435628 131.95487458 -25.5 124.5 C-25.36932129 123.58186523 -25.23864258 122.66373047 -25.10400391 121.71777344 C-24.13583061 115.26083061 -24.13583061 115.26083061 -23 114.125 C-22.78936893 111.62083065 -22.62427923 109.13359919 -22.5 106.625 C-22.13513514 99.26013514 -22.13513514 99.26013514 -21 98.125 C-20.63812596 95.4048628 -20.33237865 92.69842295 -20.0625 89.96875 C-19.93500366 88.74254944 -19.93500366 88.74254944 -19.80493164 87.49157715 C-19.53243161 84.86979656 -19.26555672 82.24749243 -19 79.625 C-18.65080565 76.17654818 -18.29595977 72.72874958 -17.9375 69.28125 C-17.85830322 68.48021851 -17.77910645 67.67918701 -17.69750977 66.85388184 C-17.11280181 61.23780181 -17.11280181 61.23780181 -16 60.125 C-15.83970312 57.16970496 -15.74042672 54.23517543 -15.68359375 51.27734375 C-15.6524221 49.94770348 -15.6524221 49.94770348 -15.62062073 48.59120178 C-15.555026 45.748383 -15.49619448 42.90546883 -15.4375 40.0625 C-15.3943242 38.13996394 -15.35071022 36.21743766 -15.30664062 34.29492188 C-15.19933457 29.57171332 -15.09809549 24.84840847 -15 20.125 C-19.62 20.125 -24.24 20.125 -29 20.125 C-29 20.785 -29 21.445 -29 22.125 C-30.14339844 22.18558594 -31.28679687 22.24617188 -32.46484375 22.30859375 C-33.95574305 22.39298428 -35.44662775 22.47763302 -36.9375 22.5625 C-37.69224609 22.60181641 -38.44699219 22.64113281 -39.22460938 22.68164062 C-42.91944187 22.56538024 -42.91944187 22.56538024 -46 24.125 C-47.97509873 24.3344361 -49.95571682 24.49303822 -51.9375 24.625 C-56.12167415 24.80235084 -56.12167415 24.80235084 -60 26.125 C-65.98401164 27.14974618 -71.94576468 27.22109897 -78 27.125 C-80.26239071 23.5523444 -80.14388082 20.84176677 -79.8125 16.6875 C-79.73644531 15.57503906 -79.66039062 14.46257812 -79.58203125 13.31640625 C-78.93310099 9.75817793 -78.45507762 7.80549393 -76 5.125 C-73.11363503 4.60893475 -70.76180744 4.38007348 -67.875 4.375 C-63.05166201 4.71728515 -63.05166201 4.71728515 -59 3.125 C-57.14630389 3.03762355 -55.28932459 3.01801847 -53.43359375 3.02734375 C-52.30888672 3.03056641 -51.18417969 3.03378906 -50.02539062 3.03710938 C-48.84138672 3.04548828 -47.65738281 3.05386719 -46.4375 3.0625 C-45.24962891 3.06701172 -44.06175781 3.07152344 -42.83789062 3.07617188 C-39.89187774 3.08800325 -36.94596319 3.10448713 -34 3.125 C-34 2.465 -34 1.805 -34 1.125 C-22.66441429 0.34323547 -11.36336452 0.01754057 0 0 Z " fill="#010101" transform="translate(248,241.875)"/>
<path d="M0 0 C0 0.66 0 1.32 0 2 C0.72574219 2.268125 1.45148438 2.53625 2.19921875 2.8125 C4.96864024 3.98670381 7.30919434 5.3394324 9.8125 7 C10.60269531 7.515625 11.39289063 8.03125 12.20703125 8.5625 C12.79871094 9.036875 13.39039063 9.51125 14 10 C14 10.66 14 11.32 14 12 C14.99 12 15.98 12 17 12 C17 12.66 17 13.32 17 14 C17.598125 14.226875 18.19625 14.45375 18.8125 14.6875 C23.67572449 17.60543469 24.66976867 22.78140016 26 28 C25.505 28.495 25.505 28.495 25 29 C24.67506012 31.2036832 24.3903973 33.41335585 24.125 35.625 C23.39720653 41.01504938 22.37183455 45.15320767 20 50 C19.30859478 52.77888613 19.30859478 52.77888613 19 55 C18.34 55 17.68 55 17 55 C16.814375 56.794375 16.814375 56.794375 16.625 58.625 C16.17674946 62.27596813 15.29553163 65.54524899 14 69 C13.34 69 12.68 69 12 69 C12 70.65 12 72.3 12 74 C11.34 74 10.68 74 10 74 C9.814375 75.794375 9.814375 75.794375 9.625 77.625 C9.17674946 81.27596813 8.29553163 84.54524899 7 88 C6.34 88 5.68 88 5 88 C5 89.32 5 90.64 5 92 C4.34 92 3.68 92 3 92 C2.9071875 93.6396875 2.9071875 93.6396875 2.8125 95.3125 C2.23272653 100.02523002 0.39139296 103.79105907 -1.65625 108.03515625 C-3.85240536 112.88074323 -5.41542402 117.92758639 -7 123 C-7.66 123 -8.32 123 -9 123 C-9.12375 123.639375 -9.2475 124.27875 -9.375 124.9375 C-10.1979822 128.97011276 -11.09885975 132.98423907 -12 137 C-12.66 137 -13.32 137 -14 137 C-14 137.66 -14 138.32 -14 139 C-15.7015625 139.2165625 -15.7015625 139.2165625 -17.4375 139.4375 C-20.80777201 139.61171478 -20.80777201 139.61171478 -22 141 C-24.67058851 141.14115161 -27.32432238 141.04247107 -30 141 C-30 141.66 -30 142.32 -30 143 C-32.33294775 143.04241723 -34.66702567 143.04092937 -37 143 C-38.62929157 141.37070843 -38.17075442 139.55305904 -38.1875 137.3125 C-38.20167969 136.46300781 -38.21585937 135.61351562 -38.23046875 134.73828125 C-37.96381227 131.57004072 -37.02493849 129.00845254 -36 126 C-35.3955264 123.24361413 -34.91571826 120.46825065 -34.4375 117.6875 C-33.13262848 110.13262848 -33.13262848 110.13262848 -32 109 C-31.64403333 106.73557336 -31.34142539 104.46270129 -31.0625 102.1875 C-28.5736069 82.5736069 -28.5736069 82.5736069 -27 81 C-26.79162581 79.17093765 -26.63250341 77.33611866 -26.5 75.5 C-26.11111111 70.11111111 -26.11111111 70.11111111 -25 69 C-24.63832274 66.35276557 -24.33256731 63.71948977 -24.0625 61.0625 C-23.93500366 59.86959351 -23.93500366 59.86959351 -23.80493164 58.65258789 C-23.53244757 56.10214701 -23.2655671 53.55116985 -23 51 C-22.65078694 47.64528538 -22.29594344 44.29123948 -21.9375 40.9375 C-21.85830322 40.15834229 -21.77910645 39.37918457 -21.69750977 38.57641602 C-21.11280181 33.11280181 -21.11280181 33.11280181 -20 32 C-19.76472227 29.65012738 -19.58613583 27.29443961 -19.4375 24.9375 C-19.35371094 23.64714844 -19.26992188 22.35679688 -19.18359375 21.02734375 C-19.09271484 19.52880859 -19.09271484 19.52880859 -19 18 C-18.34 18 -17.68 18 -17 18 C-17.04640625 17.41992188 -17.0928125 16.83984375 -17.140625 16.2421875 C-17.40106454 10.60553166 -16.94841929 7.35338537 -13 3 C-8.72454347 -0.41622435 -5.38763349 -1.57686834 0 0 Z " fill="#030303" transform="translate(409,57)"/>
<path d="M0 0 C0.495 0.495 0.495 0.495 1 1 C3.41117915 1.49949097 5.83307261 1.89929892 8.26171875 2.3046875 C11.45663069 3.11594902 14.05671563 4.52280445 17 6 C19.31723861 6.73993642 21.65207803 7.42660447 24 8.0625 C28.38226858 9.25897464 32.7024617 10.52599677 37 12 C37 12.66 37 13.32 37 14 C38.65 14 40.3 14 42 14 C42 14.66 42 15.32 42 16 C43.19625 16.12375 44.3925 16.2475 45.625 16.375 C49.27596813 16.82325054 52.54524899 17.70446837 56 19 C56 19.66 56 20.32 56 21 C57.32 21 58.64 21 60 21 C60 21.66 60 22.32 60 23 C61.216875 23.103125 62.43375 23.20625 63.6875 23.3125 C67.45198628 23.77061209 69.82356553 24.88237702 73 27 C75.19130534 27.69579454 75.19130534 27.69579454 77 28 C77 28.66 77 29.32 77 30 C79.97 30.33 82.94 30.66 86 31 C86 31.66 86 32.32 86 33 C87.65 33 89.3 33 91 33 C91 33.66 91 34.32 91 35 C92.32 35 93.64 35 95 35 C95 35.66 95 36.32 95 37 C96.11375 37.12375 97.2275 37.2475 98.375 37.375 C102 38 102 38 104 40 C104.43045336 42.00596892 104.77438903 44.03119661 105.0625 46.0625 C105.31267471 49.84863663 105.31267471 49.84863663 107 53 C107.07205511 54.68608966 107.08386068 56.37500659 107.0625 58.0625 C107.05347656 58.98160156 107.04445313 59.90070313 107.03515625 60.84765625 C107.01775391 61.91306641 107.01775391 61.91306641 107 63 C103.0010131 64.5420258 99.34750636 63.50033915 95.3125 62.625 C94.62349609 62.48578125 93.93449219 62.3465625 93.22460938 62.203125 C88.14405085 61.14405085 88.14405085 61.14405085 87 60 C84.67182036 59.63239269 82.3381615 59.29758419 80 59 C80 58.34 80 57.68 80 57 C79.15179688 57.04640625 78.30359375 57.0928125 77.4296875 57.140625 C76.25664062 57.17671875 75.08359375 57.2128125 73.875 57.25 C72.73804688 57.29640625 71.60109375 57.3428125 70.4296875 57.390625 C66.63202146 57.25821177 63.34116324 56.27162874 59.71875 55.15234375 C50.81987199 52.4785303 41.82834815 51.42306466 32.625 50.3125 C30.92565508 50.09931064 29.22643512 49.88512271 27.52734375 49.66992188 C24.41038569 49.27685105 21.29289752 48.88901103 18.17431641 48.5090332 C17.1426535 48.3818541 17.1426535 48.3818541 16.09014893 48.25210571 C14.63492377 48.07658206 13.17872458 47.90902711 11.72186279 47.74765015 C6.10655853 47.10655853 6.10655853 47.10655853 5 46 C3.67218122 45.79395915 2.33704105 45.6337041 1 45.5 C-2.88888889 45.11111111 -2.88888889 45.11111111 -4 44 C-5.47681517 43.8212355 -6.96075145 43.70043339 -8.4453125 43.60546875 C-9.35796875 43.53650391 -10.270625 43.46753906 -11.2109375 43.39648438 C-13.12951813 43.2588918 -15.04882541 43.1310299 -16.96875 43.01367188 C-23.03749732 42.53344187 -26.95580015 41.44430821 -32 38 C-32 37.34 -32 36.68 -32 36 C-33.32 35.34 -34.64 34.68 -36 34 C-36.25 26.375 -36.25 26.375 -34 23 C-33.34 23 -32.68 23 -32 23 C-32 22.34 -32 21.68 -32 21 C-31.34 21 -30.68 21 -30 21 C-29.690625 20.21625 -29.38125 19.4325 -29.0625 18.625 C-28 16 -28 16 -27 14 C-26.34 14 -25.68 14 -25 14 C-25 13.01 -25 12.02 -25 11 C-24.34 11 -23.68 11 -23 11 C-22.731875 10.236875 -22.46375 9.47375 -22.1875 8.6875 C-20.54860362 4.97841872 -18.86643596 3.59984028 -15.5625 1.3125 C-10.4314493 -0.5778871 -5.41896887 -0.43823699 0 0 Z " fill="#030303" transform="translate(150,97)"/>
<path d="M0 0 C0.33 0.66 0.66 1.32 1 2 C7.86935045 5.23263551 14.83931612 6.36207934 22.3125 7.0625 C30.74926108 7.87463054 30.74926108 7.87463054 33 9 C34.43393653 9.17748134 35.8724964 9.31891147 37.3125 9.4375 C40.85644243 9.79189424 43.76201875 10.43323488 47 12 C47 12.66 47 13.32 47 14 C47.76183594 13.97679687 48.52367187 13.95359375 49.30859375 13.9296875 C55.05541717 13.82924364 60.19548883 14.04557585 65.7578125 15.4921875 C69.15094129 16.26066615 72.56741937 16.49198079 76.03125 16.75390625 C78 17 78 17 79 18 C81.18292774 18.23481693 83.37203174 18.41363323 85.5625 18.5625 C86.76003906 18.64628906 87.95757812 18.73007812 89.19140625 18.81640625 C90.58166016 18.90728516 90.58166016 18.90728516 92 19 C92 19.66 92 20.32 92 21 C92.93199219 20.98839844 93.86398437 20.97679687 94.82421875 20.96484375 C118.54316994 20.79696442 118.54316994 20.79696442 128 25 C128.99 25.33 129.98 25.66 131 26 C131 26.66 131 27.32 131 28 C132.32 28.33 133.64 28.66 135 29 C135.33 30.98 135.66 32.96 136 35 C136.66 35 137.32 35 138 35 C136.125 40.75 136.125 40.75 135 43 C134.34 43 133.68 43 133 43 C133 43.66 133 44.32 133 45 C132.34 45 131.68 45 131 45 C131 45.99 131 46.98 131 48 C130.34 48 129.68 48 129 48 C128.731875 48.70125 128.46375 49.4025 128.1875 50.125 C126.9318551 53.1649824 125.49764877 56.0727774 124 59 C123.34 59 122.68 59 122 59 C121.79375 59.804375 121.5875 60.60875 121.375 61.4375 C120 64 120 64 117.625 64.8125 C109.61225452 65.22695235 102.7337768 65.41096884 95 63 C93.2675 62.52240234 93.2675 62.52240234 91.5 62.03515625 C85.44585355 60.35269814 79.72119332 58.58014601 74 56 C68.3306103 53.829849 63.04689904 52.54971809 57 52 C57 51.34 57 50.68 57 50 C56.34 50 55.68 50 55 50 C55 49.34 55 48.68 55 48 C54.05125 47.9175 53.1025 47.835 52.125 47.75 C47.11022533 47.06008234 42.61545074 44.99662356 38 43 C38 42.34 38 41.68 38 41 C36.88625 40.9175 35.7725 40.835 34.625 40.75 C29.3848781 40.12080974 24.79758766 38.11369129 20 36 C20 35.34 20 34.68 20 34 C18.84242188 33.896875 17.68484375 33.79375 16.4921875 33.6875 C9.37350712 32.78393898 2.96084237 29.93737015 -3 26 C-4.81337759 22.93477368 -4.98706279 20.49951637 -5 17 C-5.32786361 15.66531114 -5.66110633 14.33193092 -6 13 C-6.36138317 8.69701895 -6.62415493 4.64465962 -4 1 C-2 0 -2 0 0 0 Z " fill="#020101" transform="translate(337,310)"/>
<path d="M0 0 C0 3.96 0 7.92 0 12 C-1.98 12.99 -1.98 12.99 -4 14 C-4.66820798 16.84677532 -4.66820798 16.84677532 -4.6875 20.0625 C-4.93176179 25.93176179 -4.93176179 25.93176179 -6 27 C-6.56274765 29.68544346 -7.08061023 32.36253387 -7.5625 35.0625 C-7.77036133 36.20041992 -7.77036133 36.20041992 -7.98242188 37.36132812 C-8.32511827 39.24024975 -8.6630073 41.12004701 -9 43 C-9.66 43 -10.32 43 -11 43 C-10.81695312 43.68707031 -10.63390625 44.37414062 -10.4453125 45.08203125 C-9.92089049 48.51837549 -10.30500347 51.26361672 -10.875 54.6875 C-11.05804688 55.82574219 -11.24109375 56.96398437 -11.4296875 58.13671875 C-12 61 -12 61 -13 63 C-13.31045526 65.59143905 -13.50973912 68.18371732 -13.71875 70.78515625 C-14 73 -14 73 -15 74 C-15.20837419 75.82906235 -15.36749659 77.66388134 -15.5 79.5 C-15.88888889 84.88888889 -15.88888889 84.88888889 -17 86 C-17.19254632 87.54281975 -17.32403163 89.09333696 -17.4296875 90.64453125 C-17.50131104 91.62260742 -17.57293457 92.60068359 -17.64672852 93.60839844 C-17.72205811 94.66575195 -17.7973877 95.72310547 -17.875 96.8125 C-18.8264559 109.21211881 -19.85434462 121.92793867 -23 134 C-23.66 134 -24.32 134 -25 134 C-25.33 135.65 -25.66 137.3 -26 139 C-26.66 139 -27.32 139 -28 139 C-28 139.66 -28 140.32 -28 141 C-31.6441774 143.4294516 -33.71241272 143.16179575 -38 143 C-38 142.34 -38 141.68 -38 141 C-38.66 141 -39.32 141 -40 141 C-40 140.34 -40 139.68 -40 139 C-40.8971875 138.814375 -40.8971875 138.814375 -41.8125 138.625 C-44 138 -44 138 -47 136 C-47 135.34 -47 134.68 -47 134 C-47.99 134 -48.98 134 -50 134 C-50 133.34 -50 132.68 -50 132 C-50.928125 131.731875 -51.85625 131.46375 -52.8125 131.1875 C-55.75781025 130.09022755 -57.15017877 129.46642831 -59 127 C-59 126.34 -59 125.68 -59 125 C-60.32 125 -61.64 125 -63 125 C-64.01965824 120.79188662 -64.13364501 116.82250521 -64.125 112.5 C-64.12757813 111.2109375 -64.13015625 109.921875 -64.1328125 108.59375 C-64.02135753 105.57790967 -63.70804225 102.92207912 -63 100 C-62.34 100 -61.68 100 -61 100 C-61 99.34 -61 98.68 -61 98 C-60.34 98 -59.68 98 -59 98 C-58.95101562 97.35933594 -58.90203125 96.71867187 -58.8515625 96.05859375 C-58.3959855 90.78803915 -57.6402621 86.03013712 -56 81 C-55.34 81 -54.68 81 -54 81 C-53.87496094 80.3090625 -53.74992188 79.618125 -53.62109375 78.90625 C-52.93666723 75.70365043 -52.03095139 72.62828073 -51.0625 69.5 C-50.72347656 68.3965625 -50.38445312 67.293125 -50.03515625 66.15625 C-49.12545778 63.38252787 -48.12084268 60.69404339 -47 58 C-46.34 58 -45.68 58 -45 58 C-44.9175 56.88625 -44.835 55.7725 -44.75 54.625 C-44.12080974 49.3848781 -42.11369129 44.79758766 -40 40 C-39.34 40 -38.68 40 -38 40 C-37.67 37.36 -37.34 34.72 -37 32 C-36.34 32 -35.68 32 -35 32 C-35.061875 31.278125 -35.12375 30.55625 -35.1875 29.8125 C-35 27 -35 27 -33.625 24.75 C-31.78265433 21.63218425 -30.82926013 18.65850873 -29.8125 15.1875 C-29.46832031 14.02605469 -29.12414062 12.86460937 -28.76953125 11.66796875 C-28.38861328 10.34732422 -28.38861328 10.34732422 -28 9 C-27.34 9 -26.68 9 -26 9 C-26 7.68 -26 6.36 -26 5 C-20.95923104 3.23573086 -15.90877989 1.6354644 -10.75 0.25 C-9.77546875 -0.01296875 -8.8009375 -0.2759375 -7.796875 -0.546875 C-5 -1 -5 -1 0 0 Z " fill="#020202" transform="translate(219,273)"/>
<path d="M0 0 C0 0.66 0 1.32 0 2 C0.66 2 1.32 2 2 2 C2 2.66 2 3.32 2 4 C1.42592911 4.01030746 0.85185822 4.02061493 0.26039124 4.03123474 C-5.69265662 4.13907434 -11.64554615 4.25368977 -17.59838867 4.37231445 C-19.82263896 4.41573588 -22.04692415 4.45740545 -24.27124023 4.49731445 C-27.46088195 4.55484306 -30.6503468 4.61858684 -33.83984375 4.68359375 C-35.34139259 4.70866249 -35.34139259 4.70866249 -36.87327576 4.73423767 C-37.79415482 4.75418289 -38.71503387 4.77412811 -39.66381836 4.79467773 C-40.47878281 4.81022202 -41.29374725 4.8257663 -42.13340759 4.84178162 C-44.01409119 4.79913863 -44.01409119 4.79913863 -45 6 C-48.36693858 6.16947677 -51.72682915 6.29736594 -55.09765625 6.34179688 C-59.47540881 6.47606056 -59.47540881 6.47606056 -62.94921875 8.90625 C-63.65499558 10.31255625 -64.3176785 11.74124984 -64.9375 13.1875 C-66 15 -66 15 -68.125 15.75 C-69.053125 15.87375 -69.053125 15.87375 -70 16 C-70.36666667 8.66666667 -70.36666667 8.66666667 -68.625 5.5 C-67 4 -67 4 -65 4 C-65 3.34 -65 2.68 -65 2 C-61.83260719 0.14910423 -59.45791408 -0.26906616 -55.80761719 -0.3347168 C-54.77264099 -0.35781418 -53.73766479 -0.38091156 -52.67132568 -0.40470886 C-51.55775696 -0.41939713 -50.44418823 -0.43408539 -49.296875 -0.44921875 C-47.5692392 -0.48182549 -47.5692392 -0.48182549 -45.80670166 -0.51509094 C-43.36909693 -0.5590033 -40.93140345 -0.59820409 -38.49365234 -0.63305664 C-34.77802056 -0.6870925 -31.06296451 -0.75736909 -27.34765625 -0.83007812 C-24.97657893 -0.87076083 -22.60548528 -0.91050476 -20.234375 -0.94921875 C-19.1289032 -0.96997971 -18.0234314 -0.99074066 -16.88446045 -1.01213074 C-11.14142307 -1.08691246 -5.67761485 -0.88300364 0 0 Z " fill="#0E0D0D" transform="translate(343,22)"/>
<path d="M0 0 C0.33 0 0.66 0 1 0 C1.33 2.31 1.66 4.62 2 7 C2.99 6.67 3.98 6.34 5 6 C5 8.64 5 11.28 5 14 C5.66 14 6.32 14 7 14 C7.02505615 14.61520508 7.0501123 15.23041016 7.07592773 15.86425781 C7.19218487 18.65970156 7.31477642 21.45483298 7.4375 24.25 C7.47681641 25.21808594 7.51613281 26.18617188 7.55664062 27.18359375 C7.61948242 28.58544922 7.61948242 28.58544922 7.68359375 30.015625 C7.72025146 30.87446289 7.75690918 31.73330078 7.79467773 32.61816406 C7.92841962 34.94975329 7.92841962 34.94975329 8.50927734 36.95410156 C9.63544307 41.64926016 9.18478666 46.69738111 9.1875 51.5 C9.19974609 52.64082031 9.21199219 53.78164062 9.22460938 54.95703125 C9.22750977 56.60251953 9.22750977 56.60251953 9.23046875 58.28125 C9.23457764 59.28220703 9.23868652 60.28316406 9.24291992 61.31445312 C8.99359361 64.07082436 8.52101868 65.70236864 7 68 C4.875 68.75 4.875 68.75 3 69 C3 69.66 3 70.32 3 71 C1.35 71 -0.3 71 -2 71 C-1.55136989 68.08390428 -0.8111435 66.75233132 1.01953125 64.3515625 C3.35005874 60.40759291 3.56914537 57.44157941 3.4375 53 C3.4271875 52.20327881 3.416875 51.40655762 3.40625 50.58569336 C3.1703334 41.27479389 2.11847798 32.00818284 1.06811523 22.75976562 C0.21745193 15.13152942 -0.1915496 7.6752861 0 0 Z " fill="#0E0D0C" transform="translate(280,139)"/>
<path d="M0 0 C0.83265381 0.00523682 1.66530762 0.01047363 2.52319336 0.01586914 C3.42231445 0.0190918 4.32143555 0.02231445 5.24780273 0.02563477 C6.66609375 0.03820312 6.66609375 0.03820312 8.11303711 0.05102539 C9.06243164 0.05553711 10.01182617 0.06004883 10.98999023 0.06469727 C13.34356776 0.07652429 15.69702188 0.09300514 18.05053711 0.11352539 C17.19116211 2.08422852 17.19116211 2.08422852 16.05053711 4.11352539 C13.80053711 4.58227539 13.80053711 4.58227539 11.05053711 4.61352539 C5.06173921 4.9357573 0.46335405 6.66574981 -4.94946289 9.11352539 C-5.7912207 9.44352539 -6.63297852 9.77352539 -7.50024414 10.11352539 C-9.69592613 11.01000799 -11.69068273 12.02919027 -13.76196289 13.17602539 C-17.84981168 15.27056125 -21.38855639 15.78774635 -25.94946289 16.11352539 C-26.01196289 13.86352539 -26.01196289 13.86352539 -24.94946289 11.11352539 C-21.16190122 8.75665302 -17.43008302 7.11352539 -12.94946289 7.11352539 C-12.94946289 6.45352539 -12.94946289 5.79352539 -12.94946289 5.11352539 C-12.23918945 4.83637695 -11.52891602 4.55922852 -10.79711914 4.27368164 C-9.4184668 3.7303418 -9.4184668 3.7303418 -8.01196289 3.17602539 C-7.09543945 2.81637695 -6.17891602 2.45672852 -5.23461914 2.08618164 C-0.38618503 0.02248917 -0.38618503 0.02248917 0 0 Z " fill="#0D0C0A" transform="translate(454.949462890625,213.886474609375)"/>
<path d="M0 0 C1.134375 0.020625 2.26875 0.04125 3.4375 0.0625 C3.4375 1.3825 3.4375 2.7025 3.4375 4.0625 C2.7775 4.0625 2.1175 4.0625 1.4375 4.0625 C1.4375 4.7225 1.4375 5.3825 1.4375 6.0625 C-1.2025 6.0625 -3.8425 6.0625 -6.5625 6.0625 C-6.5625 6.7225 -6.5625 7.3825 -6.5625 8.0625 C-8.61328125 8.29036458 -10.6640625 8.51822917 -12.71484375 8.74609375 C-14.57390229 8.88136614 -14.57390229 8.88136614 -15.5625 10.0625 C-17.91237262 10.29777773 -20.26806039 10.47636417 -22.625 10.625 C-24.56052734 10.75068359 -24.56052734 10.75068359 -26.53515625 10.87890625 C-27.53417969 10.93949219 -28.53320312 11.00007812 -29.5625 11.0625 C-29.8925 10.0725 -30.2225 9.0825 -30.5625 8.0625 C-32.5425 8.0625 -34.5225 8.0625 -36.5625 8.0625 C-36.5625 7.7325 -36.5625 7.4025 -36.5625 7.0625 C-22.00269284 4.01242182 -22.00269284 4.01242182 -16.1875 3.4375 C-12.75753907 3.46773661 -12.75753907 3.46773661 -11.5625 2.0625 C-8.0625 1.5625 -8.0625 1.5625 -4.5625 1.0625 C-3.5625 0.0625 -3.5625 0.0625 0 0 Z " fill="#100E0D" transform="translate(268.5625,208.9375)"/>
<path d="M0 0 C1.09731445 0.01353516 1.09731445 0.01353516 2.21679688 0.02734375 C3.99884298 0.05063847 5.78071759 0.0864981 7.5625 0.125 C7.5625 1.445 7.5625 2.765 7.5625 4.125 C6.71945313 4.25777344 5.87640625 4.39054688 5.0078125 4.52734375 C3.91210938 4.70394531 2.81640625 4.88054687 1.6875 5.0625 C0.05167969 5.32353516 0.05167969 5.32353516 -1.6171875 5.58984375 C-4.37571546 5.98051159 -4.37571546 5.98051159 -6.4375 7.125 C-8.35168532 6.85634241 -10.26582657 6.58736506 -12.1796875 6.31640625 C-15.16223998 6.06356011 -17.89705153 6.462886 -20.8515625 6.8671875 C-26.02764787 7.38323227 -31.24164945 7.19727613 -36.4375 7.125 C-35.7775 5.805 -35.1175 4.485 -34.4375 3.125 C-33.14714844 3.07601562 -31.85679687 3.02703125 -30.52734375 2.9765625 C-28.80987653 2.90148197 -27.09242959 2.82593646 -25.375 2.75 C-24.52744141 2.7190625 -23.67988281 2.688125 -22.80664062 2.65625 C-18.92586221 2.47644559 -15.59915029 2.17138661 -11.84375 1.09375 C-7.77146839 -0.06442183 -4.20015801 -0.09991227 0 0 Z " fill="#100F0E" transform="translate(224.4375,243.875)"/>
<path d="M0 0 C0 0.33 0 0.66 0 1 C1.485 1.495 1.485 1.495 3 2 C2.67 2.99 2.34 3.98 2 5 C1.21753906 5.13277344 0.43507812 5.26554688 -0.37109375 5.40234375 C-1.38300781 5.57894531 -2.39492187 5.75554687 -3.4375 5.9375 C-4.44683594 6.11152344 -5.45617187 6.28554687 -6.49609375 6.46484375 C-8.9287438 6.74751097 -8.9287438 6.74751097 -10 8 C-12.03539568 8.35103201 -14.07889489 8.65551968 -16.125 8.9375 C-20.91450755 9.63827503 -25.40226568 10.50306325 -30 12 C-30.33 11.01 -30.66 10.02 -31 9 C-26.81247436 4.81247436 -21.11507536 4.22263951 -15.4375 3.625 C-11.89734854 2.9813361 -10.72073556 2.17658845 -8 0 C-4.64492003 -0.98197462 -3.37141509 -1.12380503 0 0 Z " fill="#0D0C0A" transform="translate(216,223)"/>
<path d="M0 0 C0.66 0.66 1.32 1.32 2 2 C1.625 4.125 1.625 4.125 1 6 C-0.299375 5.814375 -1.59875 5.62875 -2.9375 5.4375 C-5.08575543 5.1018371 -5.08575543 5.1018371 -7 5 C-7.33 5.33 -7.66 5.66 -8 6 C-9.99958364 6.04080783 -12.00045254 6.04254356 -14 6 C-14 6.66 -14 7.32 -14 8 C-15.53125 9.2890625 -15.53125 9.2890625 -17.5 10.625 C-18.1496875 11.07101563 -18.799375 11.51703125 -19.46875 11.9765625 C-19.9740625 12.31429687 -20.479375 12.65203125 -21 13 C-21.75 10.25 -21.75 10.25 -22 7 C-16.70632959 -0.41113857 -8.41672571 -0.97019144 0 0 Z " fill="#0C0B0B" transform="translate(150,97)"/>
<path d="M0 0 C0.96069397 0.00015106 1.92138794 0.00030212 2.91119385 0.00045776 C3.94049011 0.01078033 4.96978638 0.02110291 6.03027344 0.03173828 C7.0900238 0.03456818 8.14977417 0.03739807 9.24163818 0.04031372 C12.62442341 0.05150344 16.00694331 0.07660608 19.38964844 0.10205078 C21.68391545 0.11208213 23.97818661 0.12120771 26.27246094 0.12939453 C31.89494721 0.15143882 37.51727886 0.18490451 43.13964844 0.22705078 C43.13964844 0.55705078 43.13964844 0.88705078 43.13964844 1.22705078 C38.26231875 2.49147384 33.45601711 2.3619432 28.45605469 2.36767578 C26.54002711 2.38599722 24.62401114 2.40556691 22.70800781 2.42626953 C19.70154066 2.45526055 16.69582518 2.47705181 13.68920898 2.47753906 C10.77748675 2.48087737 7.86747859 2.51543666 4.95605469 2.55517578 C4.06213516 2.54810608 3.16821564 2.54103638 2.24720764 2.53375244 C-2.06531709 2.61759916 -4.96532239 2.85716701 -8.38793945 5.62451172 C-10.47862152 7.82522968 -11.81689232 9.40971081 -12.86035156 12.22705078 C-13.54785156 10.47705078 -13.54785156 10.47705078 -13.86035156 8.22705078 C-12.54785156 5.97705078 -12.54785156 5.97705078 -10.86035156 4.22705078 C-10.20035156 4.22705078 -9.54035156 4.22705078 -8.86035156 4.22705078 C-8.86035156 3.56705078 -8.86035156 2.90705078 -8.86035156 2.22705078 C-5.77252178 0.43247402 -3.55606722 -0.01871614 0 0 Z " fill="#000000" transform="translate(286.8603515625,21.77294921875)"/>
<path d="M0 0 C-0.66 1.32 -1.32 2.64 -2 4 C-2.59949463 4.02505615 -3.19898926 4.0501123 -3.81665039 4.07592773 C-6.56543324 4.19285773 -9.31395375 4.31513947 -12.0625 4.4375 C-13.00544922 4.47681641 -13.94839844 4.51613281 -14.91992188 4.55664062 C-20.01115478 4.78725396 -24.97064756 5.1699127 -30 6 C-30 3 -30 3 -28 1 C-18.97508062 -0.86479816 -9.17662137 -0.0968225 0 0 Z " fill="#0F0E0D" transform="translate(133,162)"/>
<path d="M0 0 C0.79921875 0.01804688 1.5984375 0.03609375 2.421875 0.0546875 C3.02515625 0.07789063 3.6284375 0.10109375 4.25 0.125 C4.25 0.785 4.25 1.445 4.25 2.125 C5.013125 1.795 5.77625 1.465 6.5625 1.125 C9.25 0.125 9.25 0.125 12.25 0.125 C11.92 1.445 11.59 2.765 11.25 4.125 C8.46019334 4.82095819 5.66859396 5.50706674 2.875 6.1875 C2.0809375 6.38666016 1.286875 6.58582031 0.46875 6.79101562 C-5.5234375 8.23828125 -5.5234375 8.23828125 -7.75 7.125 C-8.375 4.5625 -8.375 4.5625 -8.75 2.125 C-5.68753253 0.34090198 -3.52920727 -0.10380021 0 0 Z " fill="#100E0E" transform="translate(340.75,224.875)"/>
<path d="M0 0 C3.63 0.33 7.26 0.66 11 1 C11 1.66 11 2.32 11 3 C12.2375 3.0825 13.475 3.165 14.75 3.25 C17.89916961 3.63527075 18.90074946 3.92308083 21.5 5.9375 C23 8 23 8 23 10 C19.25 11.125 19.25 11.125 17 10 C17 9.34 17 8.68 17 8 C15.865625 7.9175 14.73125 7.835 13.5625 7.75 C8.5929304 7.15436286 4.4453348 5.21237727 0 3 C0 2.01 0 1.02 0 0 Z " fill="#0C0C0A" transform="translate(199,117)"/>
<path d="M0 0 C2.41760876 0.11426509 4.83347218 0.24099661 7.25 0.375 C7.93191406 0.4059375 8.61382812 0.436875 9.31640625 0.46875 C16.22573904 0.87123541 16.22573904 0.87123541 19 3 C19.59863281 5.07568359 19.59863281 5.07568359 20 7 C17.0610493 6.9131197 14.12518711 6.80626233 11.1875 6.6875 C10.35412109 6.66494141 9.52074219 6.64238281 8.66210938 6.61914062 C7.45844727 6.5659668 7.45844727 6.5659668 6.23046875 6.51171875 C5.12288208 6.47244263 5.12288208 6.47244263 3.99291992 6.43237305 C1.52833609 5.89767037 0.59947676 4.90034653 -1 3 C-0.67 2.01 -0.34 1.02 0 0 Z " fill="#161513" transform="translate(161,138)"/>
<path d="M0 0 C0.99 0 1.98 0 3 0 C3 0.66 3 1.32 3 2 C3.99 1.67 4.98 1.34 6 1 C8.69921875 1.33984375 8.69921875 1.33984375 11.6875 1.9375 C13.17830078 2.22947266 13.17830078 2.22947266 14.69921875 2.52734375 C15.45847656 2.68332031 16.21773437 2.83929688 17 3 C17.33 4.65 17.66 6.3 18 8 C11.02330843 8.39325819 5.48343811 7.63096039 -1 5 C-0.67 3.35 -0.34 1.7 0 0 Z " fill="#0F0F0E" transform="translate(184,141)"/>
<path d="M0 0 C4.30375407 -0.20017461 7.06035295 0.36648781 11 2 C13.32597511 2.3813074 15.65912158 2.72460254 18 3 C18 3.66 18 4.32 18 5 C19.98 5.66 21.96 6.32 24 7 C23.67 7.99 23.34 8.98 23 10 C21.35 10.33 19.7 10.66 18 11 C18 10.34 18 9.68 18 9 C15.36 8.34 12.72 7.68 10 7 C10 6.34 10 5.68 10 5 C9.071875 4.855625 8.14375 4.71125 7.1875 4.5625 C4 4 4 4 1 3 C0.67 2.01 0.34 1.02 0 0 Z " fill="#110F0E" transform="translate(174,108)"/>
<path d="M0 0 C1.32 0 2.64 0 4 0 C3.67 1.65 3.34 3.3 3 5 C1.68 5.33 0.36 5.66 -1 6 C-1 6.66 -1 7.32 -1 8 C-1.99 8 -2.98 8 -4 8 C-4 8.66 -4 9.32 -4 10 C-7.3 10 -10.6 10 -14 10 C-14.33 9.01 -14.66 8.02 -15 7 C-8.375 4 -8.375 4 -5 4 C-5 3.34 -5 2.68 -5 2 C-3.35 2 -1.7 2 0 2 C0 1.34 0 0.68 0 0 Z " fill="#0D0C0B" transform="translate(155,242)"/>
<path d="M0 0 C12.87 0.495 12.87 0.495 26 1 C25.34 2.65 24.68 4.3 24 6 C17.07 5.67 10.14 5.34 3 5 C3.66 3.68 4.32 2.36 5 1 C3.35 1 1.7 1 0 1 C0 0.67 0 0.34 0 0 Z " fill="#0F100D" transform="translate(227,175)"/>
<path d="M0 0 C0 0.66 0 1.32 0 2 C2.64 2 5.28 2 8 2 C8 2.33 8 2.66 8 3 C6.35 3.33 4.7 3.66 3 4 C3 4.99 3 5.98 3 7 C1.3973218 7.10824843 -0.20745748 7.18570645 -1.8125 7.25 C-2.70582031 7.29640625 -3.59914063 7.3428125 -4.51953125 7.390625 C-7 7 -7 7 -8.82421875 5.109375 C-10 3 -10 3 -10 1 C-6.59437148 0.22157062 -3.49234244 -0.09978121 0 0 Z " fill="#040404" transform="translate(378,294)"/>
<path d="M0 0 C1.65 0.99 3.3 1.98 5 3 C4.34 5.64 3.68 8.28 3 11 C2.34 11 1.68 11 1 11 C1 11.99 1 12.98 1 14 C-0.65 14.66 -2.3 15.32 -4 16 C-2.85814266 11.52040582 -1.56984833 7.85477249 1 4 C0.34 4 -0.32 4 -1 4 C-0.67 2.68 -0.34 1.36 0 0 Z " fill="#080706" transform="translate(357,139)"/>
<path d="M0 0 C0.99 0.33 1.98 0.66 3 1 C3 1.99 3 2.98 3 4 C3.99 4.33 4.98 4.66 6 5 C5.34 7.31 4.68 9.62 4 12 C2.68 12.33 1.36 12.66 0 13 C-0.19466332 11.20909747 -0.38051213 9.41723495 -0.5625 7.625 C-0.66691406 6.62726563 -0.77132813 5.62953125 -0.87890625 4.6015625 C-1 2 -1 2 0 0 Z " fill="#0F0C0A" transform="translate(429,78)"/>
<path d="M0 0 C1.63001953 0.01353516 1.63001953 0.01353516 3.29296875 0.02734375 C4.12441406 0.03894531 4.95585937 0.05054687 5.8125 0.0625 C5.8125 0.3925 5.8125 0.7225 5.8125 1.0625 C4.1625 1.0625 2.5125 1.0625 0.8125 1.0625 C0.8125 1.7225 0.8125 2.3825 0.8125 3.0625 C-1.1675 3.0625 -3.1475 3.0625 -5.1875 3.0625 C-5.1875 4.7125 -5.1875 6.3625 -5.1875 8.0625 C-6.1775 8.5575 -6.1775 8.5575 -7.1875 9.0625 C-7.8475 8.7325 -8.5075 8.4025 -9.1875 8.0625 C-9.1875 5.7525 -9.1875 3.4425 -9.1875 1.0625 C-5.90230525 -0.03256492 -3.45086585 -0.03710608 0 0 Z " fill="#131415" transform="translate(272.1875,111.9375)"/>
<path d="M0 0 C1.98 0.495 1.98 0.495 4 1 C3.88490339 2.41750563 3.75746342 3.83401169 3.625 5.25 C3.55539062 6.03890625 3.48578125 6.8278125 3.4140625 7.640625 C2.98169974 10.10427696 2.13967023 11.79188892 1 14 C0.61250787 16.32495277 0.27017161 18.65851268 0 21 C-0.33 21 -0.66 21 -1 21 C-1.02719556 18.62492145 -1.04693247 16.25016036 -1.0625 13.875 C-1.07087891 13.20984375 -1.07925781 12.5446875 -1.08789062 11.859375 C-1.10782292 7.79318646 -0.78890161 3.9879908 0 0 Z " fill="#0B0A0A" transform="translate(365,51)"/>
<path d="M0 0 C0.04254356 1.99954746 0.04080783 4.00041636 0 6 C-1 7 -1 7 -4.5625 7.0625 C-5.696875 7.041875 -6.83125 7.02125 -8 7 C-8 3 -8 3 -7 1 C-4 0 -4 0 0 0 Z " fill="#080706" transform="translate(106,254)"/>
<path d="M0 0 C0.721875 0.103125 1.44375 0.20625 2.1875 0.3125 C1.81915987 2.96454896 1.5007309 4.05090056 -0.58984375 5.796875 C-1.30269531 6.21453125 -2.01554687 6.6321875 -2.75 7.0625 C-3.81541016 7.70445312 -3.81541016 7.70445312 -4.90234375 8.359375 C-6.8125 9.3125 -6.8125 9.3125 -8.8125 9.3125 C-8.26122218 4.35099964 -4.99006199 0.55445133 0 0 Z " fill="#0B0B0B" transform="translate(93.8125,166.6875)"/>
<path d="M0 0 C1.45792884 -0.05399736 2.91642712 -0.09279177 4.375 -0.125 C5.18710938 -0.14820313 5.99921875 -0.17140625 6.8359375 -0.1953125 C9 0 9 0 11 2 C11 2.99 11 3.98 11 5 C9.741875 5.020625 8.48375 5.04125 7.1875 5.0625 C6.47980469 5.07410156 5.77210938 5.08570313 5.04296875 5.09765625 C3 5 3 5 0 4 C0 2.68 0 1.36 0 0 Z " fill="#0D0D0C" transform="translate(133,163)"/>
<path d="M0 0 C5.61 0 11.22 0 17 0 C17 1.32 17 2.64 17 4 C16.67 3.34 16.34 2.68 16 2 C12.04 2 8.08 2 4 2 C4 2.66 4 3.32 4 4 C2.68 4 1.36 4 0 4 C0 2.68 0 1.36 0 0 Z " fill="#040202" transform="translate(204,172)"/>
<path d="M0 0 C4.77576339 0.4682121 8.04476345 1.24331998 12 4 C11.67 4.99 11.34 5.98 11 7 C10.01 7 9.02 7 8 7 C8 6.34 8 5.68 8 5 C7.05125 5.020625 6.1025 5.04125 5.125 5.0625 C2 5 2 5 0 4 C0 2.68 0 1.36 0 0 Z " fill="#111110" transform="translate(161,103)"/>
<path d="M0 0 C0.99 0.33 1.98 0.66 3 1 C3 2.65 3 4.3 3 6 C3.99 6 4.98 6 6 6 C6.625 7.875 6.625 7.875 7 10 C6.34 10.66 5.68 11.32 5 12 C1.73427415 9.82284943 0.20274779 8.72409925 -0.875 4.875 C-1 2 -1 2 0 0 Z " fill="#0E0D0B" transform="translate(116,123)"/>
<path d="M0 0 C2 1 2 1 2 1 Z M0 1 C0 1.99 0 2.98 0 4 C-6.625 7.125 -6.625 7.125 -10 6 C-10.33 5.01 -10.66 4.02 -11 3 C-7.17010894 1.19769832 -4.21878192 0.80377759 0 1 Z " fill="#0E0D0B" transform="translate(326,258)"/>
<path d="M0 0 C0.99 0 1.98 0 3 0 C3 0.66 3 1.32 3 2 C3.99 1.67 4.98 1.34 6 1 C7.5 2.375 7.5 2.375 9 4 C9 4.66 9 5.32 9 6 C1.25 6.125 1.25 6.125 -1 5 C-0.67 3.35 -0.34 1.7 0 0 Z " fill="#171614" transform="translate(184,141)"/>
<path d="M0 0 C1.37432457 3.81756824 0.67975039 7.07255329 0 11 C-0.99 11.33 -1.98 11.66 -3 12 C-3.93050292 8.36257951 -4.30458505 6.62301488 -2.625 3.1875 C-1 1 -1 1 0 0 Z " fill="#0C0A09" transform="translate(204,330)"/>
<path d="M0 0 C1.32 0 2.64 0 4 0 C4 0.66 4 1.32 4 2 C5.32 2 6.64 2 8 2 C7.34 3.32 6.68 4.64 6 6 C4.02 6 2.04 6 0 6 C-1.125 2.25 -1.125 2.25 0 0 Z " fill="#0C0C0A" transform="translate(223,125)"/>
<path d="M0 0 C0.99 0.33 1.98 0.66 3 1 C2.01 1.33 1.02 1.66 0 2 C-0.2165625 2.8971875 -0.2165625 2.8971875 -0.4375 3.8125 C-1.18951488 6.7370023 -2.79712511 8.01030655 -5 10 C-5.99 9.67 -6.98 9.34 -8 9 C-8 8.34 -8 7.68 -8 7 C-7.34 7 -6.68 7 -6 7 C-5.7525 6.401875 -5.505 5.80375 -5.25 5.1875 C-3.80517427 2.65905497 -2.51719455 1.44929383 0 0 Z " fill="#0E0C09" transform="translate(403,57)"/>
<path d="M0 0 C1.65 0 3.3 0 5 0 C5 0.66 5 1.32 5 2 C7.64 2 10.28 2 13 2 C13 2.33 13 2.66 13 3 C9.17679443 4.42258812 6.08718695 5.24042276 2 5 C2 4.34 2 3.68 2 3 C1.01 3.33 0.02 3.66 -1 4 C-0.67 2.68 -0.34 1.36 0 0 Z " fill="#0B0C0D" transform="translate(373,294)"/>
<path d="M0 0 C1.32 0 2.64 0 4 0 C5 2 5 2 4.375 4.5625 C3 7 3 7 0.375 7.8125 C-0.40875 7.874375 -1.1925 7.93625 -2 8 C-1.125 1.125 -1.125 1.125 0 0 Z " fill="#0A090A" transform="translate(206,307)"/>
<path d="M0 0 C0.66 0 1.32 0 2 0 C2.05399736 1.45792884 2.09279177 2.91642712 2.125 4.375 C2.14820313 5.18710938 2.17140625 5.99921875 2.1953125 6.8359375 C2 9 2 9 0 11 C-0.99 11 -1.98 11 -3 11 C-2.67 8.69 -2.34 6.38 -2 4 C-1.34 4 -0.68 4 0 4 C-0.33 3.01 -0.66 2.02 -1 1 C-0.67 0.67 -0.34 0.34 0 0 Z " fill="#0F0D0B" transform="translate(383,146)"/>
<path d="M0 0 C3.125 -0.1875 3.125 -0.1875 6 0 C6 1.65 6 3.3 6 5 C3.125 5.125 3.125 5.125 0 5 C-0.66 4.34 -1.32 3.68 -2 3 C-1.34 2.01 -0.68 1.02 0 0 Z " fill="#11110F" transform="translate(243,153)"/>
<path d="M0 0 C2.31 0.33 4.62 0.66 7 1 C7 1.66 7 2.32 7 3 C7.99 3 8.98 3 10 3 C10 3.66 10 4.32 10 5 C6.05272412 5.17942163 3.4019487 5.09350689 0 3 C0 2.01 0 1.02 0 0 Z " fill="#151311" transform="translate(199,117)"/>
<path d="M0 0 C3.96 0 7.92 0 12 0 C12 0.33 12 0.66 12 1 C10.35 1 8.7 1 7 1 C7 1.66 7 2.32 7 3 C5.02 3 3.04 3 1 3 C0.67 2.01 0.34 1.02 0 0 Z " fill="#0B0F0F" transform="translate(266,112)"/>
<path d="M0 0 C1.98 0 3.96 0 6 0 C5.34 1.32 4.68 2.64 4 4 C2.68 4 1.36 4 0 4 C0 2.68 0 1.36 0 0 Z " fill="#14120E" transform="translate(429,226)"/>
<path d="M0 0 C2.31 0 4.62 0 7 0 C7 0.66 7 1.32 7 2 C6.01 2 5.02 2 4 2 C4 2.66 4 3.32 4 4 C2.68 4 1.36 4 0 4 C0 2.68 0 1.36 0 0 Z " fill="#100D0B" transform="translate(204,172)"/>
<path d="M0 0 C-2.87164566 2.70272533 -4.30991841 3.94791837 -8.3125 4.25 C-9.199375 4.1675 -10.08625 4.085 -11 4 C-9.71264403 1.42528807 -8.71510189 1.29583343 -6.0625 0.3125 C-5.35222656 0.04050781 -4.64195312 -0.23148438 -3.91015625 -0.51171875 C-2 -1 -2 -1 0 0 Z " fill="#040401" transform="translate(441,222)"/>
<path d="M0 0 C0.33 0.66 0.66 1.32 1 2 C1.99 2.33 2.98 2.66 4 3 C3.67 4.32 3.34 5.64 3 7 C2.34 7 1.68 7 1 7 C-0.0625 4.625 -0.0625 4.625 -1 2 C-0.67 1.34 -0.34 0.68 0 0 Z " fill="#110E0C" transform="translate(352,167)"/>
<path d="M0 0 C0.99 0 1.98 0 3 0 C2.34 1.98 1.68 3.96 1 6 C1.66 6.33 2.32 6.66 3 7 C2.01 7.33 1.02 7.66 0 8 C-0.38063221 5.6739143 -0.71269945 3.33944736 -1 1 C-0.67 0.67 -0.34 0.34 0 0 Z " fill="#090706" transform="translate(271,58)"/>
</svg>
